<svg xmlns="http://www.w3.org/2000/svg" viewBox="0 0 64 64" width="512" height="512">
  <rect width="64" height="64" rx="14" fill="#1B3A63"/>
  <path d="M19 19 C14 32 17 44 25 49" stroke="#fff" stroke-width="7" fill="none" stroke-linecap="round"/>
  <path d="M45 19 C50 31 49 40 45 45" stroke="#fff" stroke-width="7" fill="none" stroke-linecap="round"/>
  <path d="M25 49 C31 53 38 51 42 46" stroke="#fff" stroke-width="7" fill="none" stroke-linecap="round"/>
  <path d="M31 41 C22 39 19 31 21 24 C29 26 32 33 31 41 Z" fill="#6FC44A"/>
  <path d="M33 42 C33 30 38 23 47 21 C48 32 43 40 33 42 Z" fill="#8ED04F"/>
  <circle cx="45" cy="47" r="9" fill="#fff"/>
  <circle cx="45" cy="47" r="5.6" fill="#22B59B"/>
</svg>
